<?xml version="1.0" standalone="no"?>
<!DOCTYPE svg PUBLIC "-//W3C//DTD SVG 20010904//EN"
 "http://www.w3.org/TR/2001/REC-SVG-20010904/DTD/svg10.dtd">
<svg version="1.0" xmlns="http://www.w3.org/2000/svg"
 width="1277.000000pt" height="1000.000000pt" viewBox="0 0 1277.000000 1000.000000"
 preserveAspectRatio="xMidYMid meet">
<metadata>
Created by potrace 1.16, written by Peter Selinger 2001-2019
</metadata>
<g transform="translate(0.000000,1000.000000) scale(0.100000,-0.100000)"
fill="#000000" stroke="none">
<path d="M6118 9800 c-533 -61 -1001 -250 -1433 -579 -118 -90 -354 -321 -449
-441 -316 -397 -516 -860 -594 -1373 -24 -163 -24 -545 1 -682 164 -892 883
-2342 2097 -4230 212 -329 542 -815 571 -839 58 -49 149 -44 201 11 58 62 553
816 878 1338 1017 1633 1628 2913 1776 3720 26 137 26 519 2 682 -65 427 -212
816 -437 1154 -125 188 -203 283 -365 444 -419 416 -939 680 -1533 776 -144
23 -575 35 -715 19z m592 -325 c1152 -151 2040 -1074 2151 -2235 35 -370 -39
-726 -273 -1310 -285 -715 -807 -1688 -1506 -2810 -264 -423 -671 -1049 -682
-1050 -11 0 -420 630 -682 1050 -1138 1828 -1756 3162 -1785 3855 -29 709 313
1465 877 1937 417 349 886 535 1470 582 76 6 319 -5 430 -19z"/>
<path d="M6235 8494 c-271 -41 -476 -119 -676 -256 -253 -172 -462 -451 -559
-744 -176 -533 -39 -1115 354 -1508 209 -209 454 -342 753 -408 143 -31 444
-31 590 0 651 141 1116 666 1173 1326 64 737 -437 1410 -1168 1567 -94 20
-390 34 -467 23z m367 -329 c223 -39 446 -154 608 -314 180 -178 298 -411 336
-661 80 -533 -237 -1064 -747 -1251 -170 -62 -406 -86 -576 -59 -501 82 -893
478 -969 980 -82 545 250 1084 776 1261 52 17 127 37 165 44 97 18 305 18 407
0z"/>
<path d="M8414 3096 c-105 -46 -120 -208 -25 -275 21 -15 79 -31 193 -51 736
-134 1322 -332 1674 -565 123 -81 252 -212 292 -295 43 -90 48 -140 23 -220
-142 -448 -1300 -871 -2806 -1025 -750 -76 -1624 -87 -2385 -29 -1712 129
-3057 594 -3161 1093 -53 256 331 561 996 791 260 90 636 185 965 245 161 30
163 31 205 74 24 26 30 41 33 94 3 52 0 67 -20 97 -27 41 -79 70 -125 70 -44
0 -325 -54 -533 -102 -1064 -246 -1708 -623 -1825 -1069 -24 -93 -17 -258 15
-353 61 -178 240 -372 486 -524 565 -351 1608 -615 2829 -716 435 -37 558 -41
1160 -41 638 0 847 9 1320 56 1443 141 2529 487 2961 940 147 155 214 307 214
486 0 150 -46 279 -147 411 -289 377 -1022 694 -2048 886 -208 39 -245 42
-291 22z"/>
</g>
</svg>
